<?xml version="1.0"?>
<svg fill="#070707" xmlns="http://www.w3.org/2000/svg" viewBox="0 0 16 16">
    <path style="line-height:normal;text-indent:0;text-align:start;text-decoration-line:none;text-decoration-style:solid;text-decoration-color:#000;text-transform:none;block-progression:tb;isolation:auto;mix-blend-mode:normal" d="M 12 1 L 12 2 L 14 2 L 14 3 L 13 3 L 13 4 L 14 4 L 14 5 L 13 5 L 13 6 L 14 6 L 14 7 L 13 7 L 13 8 L 14 8 L 14 9 L 13 9 L 13 10 L 14 10 L 14 11 L 13 11 L 13 12 L 14 12 L 14 13 L 12 13 L 12 14 L 15 14 L 15 1 L 12 1 z M 4 2 C 4 4.40201 3.5501235 5.2615142 3.046875 6.34375 C 2.5757697 7.3568618 2.0744974 8.5629146 2.0117188 11 L 0 11 L 2.5 13.5 L 5 11 L 3.0234375 11 C 3.0830745 8.743336 3.4925853 7.7560156 3.953125 6.765625 C 4.4498765 5.6973608 5 4.53699 5 2 L 4 2 z M 10 2 C 10 4.40201 9.5501235 5.2615142 9.046875 6.34375 C 8.5757697 7.3568618 8.0744973 8.5629146 8.0117188 11 L 6 11 L 8.5 13.5 L 11 11 L 9.0234375 11 C 9.0830745 8.743336 9.4925853 7.7560156 9.953125 6.765625 C 10.449877 5.6973608 11 4.53699 11 2 L 10 2 z"/>
</svg>